<svg xmlns="http://www.w3.org/2000/svg" width="2114" height="386" fill="none" viewBox="0 0 2114 386">
  <g clip-path="url(#a)">
    <path fill="#BC1015" d="M614.45 133.945c35.979-64.898 126.02-65.308 165.237-11.896 32.46 44.211 23.875 109.998-19.219 142.025-43.615 32.414-108.534 24.008-140.024-21.155-23.275-33.38-23.672-70.821-5.994-108.974Zm81.327-4.966c-31.802 2.899-47.79 25.864-44.707 64.216 2.246 27.939 26.156 47.494 55.548 45.433 27.665-1.941 46.956-28.321 44.583-61.104-2.422-33.448-27.935-52.451-55.424-48.545Zm118.694 46.662c5.747-43.56 26.058-75.841 68.632-87.87 75.257-21.261 139.457 35.597 125.787 116.315-7.17 42.348-36.927 70.34-78.206 77.576-41.416 7.26-83.586-9.975-102.558-46.801-8.842-17.164-9.338-38.627-13.655-59.22Zm142.132-21.169c-15.302-25.222-43.596-33.946-67.446-20.796-25.651 14.142-35.273 46.93-21.879 74.56 13.206 27.245 40.063 37.939 66.543 26.66 24.302-10.351 40.526-47.425 22.782-80.424Zm208.717 97.986c-19.78 20.131-43 29.385-70.05 29.366-16.03-.012-32.08-.499-48.09.132-9.92.391-13.78-2.634-13.62-13.089.54-34.873.31-69.759.26-104.641-.03-22.264-.05-44.532-.49-66.79-.2-9.543 2.58-14.119 13.26-13.626 19.87.919 40-1.127 59.67 1.124 82.32 9.418 100.3 103.453 66.7 157.421-2.04 3.284-4.57 6.269-7.64 10.103Zm-66.62-125.833c-6.74 1.778-18.4-6.015-18.53 8.732-.28 31.573-.24 63.154.27 94.722.05 2.973 4.73 8.624 6.61 8.363 11.26-1.554 24.44-1.49 33.03-7.557 18.82-13.293 24.36-34.26 21.23-56.629-3.34-23.788-14.92-41.601-42.61-47.631Z"/>
    <path fill="#fff" d="M1590.2 246.856c-.01-54.364-.01-107.285-.01-160.843 3.13-.724 5.35-1.676 7.57-1.69 29.66-.176 59.33-.908 88.96-.15 52.55 1.346 82.79 48.035 58.44 91.48-7.12 12.717-20.68 21.829-32.3 33.61 14.69 21.779 31.05 46.045 48.89 72.502-15.11 0-27.17.577-39.13-.324-3.99-.301-8.86-3.522-11.35-6.879-11.26-15.207-22.57-30.475-32.35-46.637-7.23-11.945-15.33-19.084-30.08-16.323-5.11.958-10.56.153-17.43.153v69.197h-41.21v-34.096Zm40.64-114.604v47.022c17.88 0 33.67.493 49.41-.125 19.47-.764 32.18-13.001 32.24-29.853.06-17.809-12.98-30.321-32.86-30.921-13.05-.395-26.16.454-39.18-.323-9.45-.563-10.37 4.313-9.61 14.2Zm335.35-25.11c-.01-7.708-.01-14.01-.01-21.722h146.62v32.63h-105.42v46.931h94.37v33.533h-94.01v48.523h105.8v33.632h-147.35V107.142Zm-427.47-23.08c6.7-.005 12.02-.005 18.19-.005v33.796h-105.23V165.1h94.31v33.129h-94.29v48.96h106.21v34.052h-146.57V84.066c42.59 0 84.29 0 127.38-.004Zm241.34 163.716c6.55-7.811 12.38-14.91 18.88-22.829 19.34 16.392 40.86 26.374 66.31 24.966 5.18-.286 11.59-.51 15.12-3.497 5.79-4.887 12.89-11.771 13.39-18.277.43-5.543-6.44-14.06-12.26-17.14-10.55-5.584-22.74-8.056-34.22-11.911-10.52-3.536-21.22-6.681-31.48-10.865-45.12-18.384-39.08-73.171-10.73-94.118 31.74-23.44 96.73-18.41 124.67 10.716-6.21 9.078-12.45 18.204-18.58 27.185-13.55-5.777-26.25-13.414-39.95-16.327-10.87-2.309-23.54-.62-34.27 2.833-5.45 1.754-11.69 11.394-11.55 17.323.15 5.982 6.54 14.782 12.31 17.105 17.94 7.224 37.06 11.451 55.4 17.769 39.87 13.733 55.55 51.493 32.91 83.856-7.97 11.388-22.21 21.375-35.58 25.428-37.97 11.509-74.09 3.851-106.32-19.506-2.94-2.133-3.24-7.913-4.05-12.711Z"/>
    <path fill="#BC1015" d="M543.882 206.485c-15.269-.028-29.176-.028-44.997-.028 0 21.815-.574 40.677.21 59.482.487 11.693-2.809 17.72-15.352 15.939-1.429-.203-2.912-.026-4.371-.024-28.396.038-28.691-.922-27.854-29.201.989-33.408.756-66.854 1.026-100.284.153-18.905.561-37.817.236-56.715-.148-8.643 2.684-12.197 11.683-12.117 39.369.355 78.742.224 118.113.302 9.488.019 14.507 2.34 11.005 14.003-2.232 7.436-.418 16.087-.418 25.806h-94.06c0 13.986-.578 26.433.492 38.736.211 2.426 6.72 6.026 10.412 6.137 19.424.582 38.902.797 58.31-.033 11.905-.508 17.164 3.186 15.769 15.555-.75 6.649-.133 13.453-.133 22.47-13.736 0-26.222 0-40.071-.028Z"/>
    <path fill="#fff" d="M1206.57 124.623c-5.49-12.991-10.81-24.87-17.78-40.445 15.16 0 28.05-.986 40.62.605 3.74.473 7.68 7.73 9.63 12.634 17.03 42.799 33.63 85.768 51.01 130.357 12.64-32.642 24.81-64.064 36.98-95.486 4.73-12.207 9.86-24.277 14.03-36.67 2.88-8.557 7.3-12.61 16.86-11.706 9.49.897 19.13.197 31.06.197-9.69 24.071-18.36 46.012-27.34 67.83-16.26 39.555-33.57 78.71-48.64 118.712-6.02 15.974-17.39 9.781-27.37 11.265-9.28 1.379-14.74-1.297-18.66-11.042-19.56-48.586-40.06-96.796-60.4-146.251Z"/>
    <path fill="#F2B81D" d="M388.234 191.152c0 105.574-86.861 191.158-194.01 191.158-107.15 0-194.01-85.584-194.01-191.158C.213 85.579 87.073-.005 194.223-.005c107.149 0 194.01 85.584 194.01 191.157Z"/>
    <path fill="#000" d="m162.105 277.385-72.635 74.74-30.33-25.101 93.432-79.807-15.766-49.889c-29.29 2.262-41.222-23.78-43.526-37.084L77.724 66.905v-8.328c9.637 27.656 30.138 84.727 35.041 91.767 4.902 7.04 11.261 2.305 13.828-.943l-25.928-92.867 1.886-4.871 34.884 90.824c9.051 6.914 14.352.996 15.871-2.828l-27.342-87.996v-4.4c14.09 25.142 44.029 79.385 51.069 95.224 7.04 15.84-6.116 40.519-13.574 50.879l13.114 33.35 16.44-14.042c-13.388-43.509 6.972-76.466 18.826-87.506 13.712-14.642 50.481-43.02 87.854-39.395 46.716 4.532 40.994 49.601 39.368 59.703-1.626 10.103-18.799 45.583-54.359 75.565-28.448 23.985-61.824 14.874-74.955 7.321L186.59 252.19l50.406 128.182-40.722 5.14-34.169-108.127Z"/>
    <path fill="#F2B81D" d="M216.371 198.38c1.952 5.857 11.505 12.899 16.037 15.688 29.842 11.156 59.15-16.037 70.074-31.028 38.489-58.29 12.086-78.906-5.927-81.928-8.599-1.975-33.468.837-64.147 27.891-38.349 33.817-18.477 62.056-16.037 69.377Z"/>
  </g>
  <defs>
    <clipPath id="a">
      <path fill="#fff" d="M0 0h2114v386H0z"/>
    </clipPath>
  </defs>
</svg>
