<svg xmlns="http://www.w3.org/2000/svg" width="320" height="320" viewBox="0 0 320 320">
  <rect width="320" height="320" fill="#fff"/>
  <g fill="#000">
    <rect x="16" y="16" width="96" height="96"/><rect x="32" y="32" width="64" height="64" fill="#fff"/><rect x="48" y="48" width="32" height="32"/>
    <rect x="208" y="16" width="96" height="96"/><rect x="224" y="32" width="64" height="64" fill="#fff"/><rect x="240" y="48" width="32" height="32"/>
    <rect x="16" y="208" width="96" height="96"/><rect x="32" y="224" width="64" height="64" fill="#fff"/><rect x="48" y="240" width="32" height="32"/>
    <rect x="136" y="136" width="16" height="16"/><rect x="152" y="136" width="16" height="16"/><rect x="184" y="136" width="16" height="16"/>
    <rect x="120" y="152" width="16" height="16"/><rect x="152" y="152" width="16" height="16"/><rect x="168" y="152" width="16" height="16"/><rect x="216" y="152" width="16" height="16"/>
    <rect x="120" y="168" width="16" height="16"/><rect x="136" y="168" width="16" height="16"/><rect x="184" y="168" width="16" height="16"/><rect x="216" y="168" width="16" height="16"/>
    <rect x="136" y="184" width="16" height="16"/><rect x="168" y="184" width="16" height="16"/><rect x="184" y="184" width="16" height="16"/><rect x="200" y="184" width="16" height="16"/>
    <rect x="120" y="216" width="16" height="16"/><rect x="152" y="216" width="16" height="16"/><rect x="168" y="216" width="16" height="16"/><rect x="200" y="216" width="16" height="16"/>
    <rect x="136" y="232" width="16" height="16"/><rect x="184" y="232" width="16" height="16"/><rect x="216" y="232" width="16" height="16"/>
    <rect x="120" y="248" width="16" height="16"/><rect x="152" y="248" width="16" height="16"/><rect x="184" y="248" width="16" height="16"/><rect x="200" y="248" width="16" height="16"/><rect x="232" y="248" width="16" height="16"/>
    <rect x="136" y="264" width="16" height="16"/><rect x="168" y="264" width="16" height="16"/><rect x="200" y="264" width="16" height="16"/>
  </g>
</svg>
